# xmcd CD database file
#
# Track frame offsets:
#	150
#	22820
#	47130
#	68150
#	80662
#	100912
#	118587
#	155862
#	181897
#	198077
#	216087
#
# Disc length: 3132 seconds
#
# Revision: 0
# Processed by: cddbd v1.5.2PL0 Copyright (c) Steve Scherf et al.
# Submitted via: CDex 1.77
#
DISCID=910c3a0b
DTITLE=Tania Maria - Viva Brazil
DYEAR=2000
DGENRE=Jazz
TTITLE0=Florzinha "Petite Fleur"
TTITLE1=Ta Tudo Certo and Mas que Nada
TTITLE2=Sebastiana
TTITLE3=Encanto Meu
TTITLE4=Vem Pr'a Roda
TTITLE5=It's only love
TTITLE6=One Note Samba
TTITLE7=Nao Se Avexe Nao
TTITLE8=Amei Demais
TTITLE9=Sangria
TTITLE10=Conceeicao
EXTD=YEAR: 2000
EXTT0=
EXTT1=
EXTT2=
EXTT3=
EXTT4=
EXTT5=
EXTT6=
EXTT7=
EXTT8=
EXTT9=
EXTT10=
PLAYORDER=
